<svg xmlns="http://www.w3.org/2000/svg" fill="none" viewBox="0 0 96 96">
  <g filter="url(#filter0_d_563_2055)">
    <path fill="#62A0D6" d="M48 88c24.3 0 44-19.7 44-44S72.3 0 48 0 4 19.7 4 44s19.7 44 44 44Z"/>
  </g>
  <path fill="#332B62" d="m27.439 24.38-1.672 1.906.633 1.095-1.144 1.303-3.489-6.328 1.263-1.443 6.732 2.631-1.153 1.316-1.17-.484v.004Zm-1.245-.523-2.425-1.008 1.32 2.266 1.105-1.258Zm5.244-9.72 1.892 6.957-1.702 1.179-5.852-4.21 1.447-1.004 4.308 3.256L30 15.132l1.438-1v.005Zm7.696 2.887-2.376.893.04 1.267-1.624.612-.088-7.225 1.795-.673 4.69 5.495-1.64.616-.801-.98.004-.005Zm-.85-1.048-1.662-2.032.096 2.622 1.567-.59Zm4.766-5.566 1.13 6.702-1.632.277-1.13-6.701 1.632-.278Zm4.387 5.184 2.17-.035.021 1.275-3.824.062-.11-6.794 1.655-.026.088 5.518Zm7.726.976-2.477-.536-.651 1.086-1.694-.365 3.837-6.125 1.874.405.968 7.163-1.712-.37-.145-1.258Zm-.145-1.337-.3-2.61-1.337 2.258 1.637.352Zm8.589 3.036a1.65 1.65 0 0 1-.154 1.1c-.255.506-.634.818-1.14.937-.506.119-1.073.018-1.707-.3l-2.83-1.42 3.054-6.072 2.733 1.372c.616.313 1.03.696 1.236 1.153.207.458.19.929-.057 1.413-.18.356-.422.607-.73.748a1.63 1.63 0 0 1-.995.114c.313.25.51.568.585.95l.005.005Zm-1.998.532c.194-.044.343-.171.45-.387.105-.211.118-.418.039-.607-.08-.194-.247-.352-.493-.475l-1.074-.542-.673 1.342 1.091.55c.247.124.467.168.66.12Zm-.532-3.089.968.489c.242.123.453.163.638.119.185-.04.325-.168.431-.374.106-.207.119-.4.044-.572-.075-.176-.233-.322-.475-.445l-.968-.488-.638 1.271Zm4.655 6.156 1.685 1.364-.805.994-2.974-2.406 4.272-5.285 1.285 1.043-3.472 4.29h.009Zm6.807.757-1.047.889 1.434 1.69-.972.826-1.435-1.69-1.135.964 1.624 1.91-1.012.858-2.693-3.172 5.179-4.4 2.692 3.172-1.012.858-1.623-1.91v.005ZM37.277 69.093l-.585 1.114-2.328-1.224-.633 1.206 1.742.915-.567 1.082-1.743-.915-1.219 2.31-1.39-.734 3.01-5.712 3.718 1.958h-.005Zm2.403.814-1.017 3.727c-.101.374-.088.686.04.937.127.251.37.427.726.524.356.097.655.07.897-.08.242-.149.418-.409.52-.782l1.016-3.727 1.518.413-1.012 3.718c-.15.555-.396.995-.74 1.316a2.33 2.33 0 0 1-1.192.607 3.119 3.119 0 0 1-1.416-.07 3.012 3.012 0 0 1-1.241-.647 2.23 2.23 0 0 1-.682-1.118c-.119-.448-.101-.95.048-1.504l1.012-3.719 1.518.414.005-.009Zm10.797 7.749-1.57-.027-2.566-4.021-.066 3.982-1.57-.027.105-6.454 1.57.026 2.566 4.043.066-4 1.57.027-.105 6.455v-.004Zm5.76-7.336a2.921 2.921 0 0 1 1.43.802c.391.4.669.91.827 1.526.158.612.163 1.189.017 1.734a2.85 2.85 0 0 1-.862 1.4c-.427.39-.968.668-1.62.84l-2.34.607-1.62-6.248 2.342-.607c.66-.172 1.267-.19 1.83-.057l-.004.004Zm.576 4.19c.238-.396.282-.885.136-1.461-.145-.577-.426-.981-.827-1.219-.404-.237-.893-.281-1.47-.132l-.72.185.94 3.63.722-.185c.577-.15.981-.422 1.224-.818h-.005Zm5.777-.427c-.4.04-.77-.018-1.113-.18-.339-.159-.611-.423-.823-.793l1.479-.787c.132.198.294.321.475.365.185.044.374.013.576-.092.207-.11.344-.242.41-.4a.536.536 0 0 0-.031-.49.52.52 0 0 0-.33-.272c-.145-.04-.3-.053-.471-.04-.172.014-.4.053-.695.11a7.464 7.464 0 0 1-1.083.141 1.795 1.795 0 0 1-.867-.184c-.285-.132-.523-.379-.712-.735-.282-.533-.313-1.047-.088-1.553.224-.507.642-.924 1.263-1.25.629-.335 1.214-.453 1.755-.36.546.096.972.404 1.285.923l-1.5.8a.679.679 0 0 0-.436-.325.797.797 0 0 0-.563.097.68.68 0 0 0-.335.352c-.057.145-.04.3.053.466.097.185.26.282.489.29.228.01.558-.021.99-.1.435-.07.796-.11 1.086-.124.29-.013.577.049.863.177.281.127.514.36.695.7.171.325.246.663.224 1.016-.022.352-.15.69-.378 1.016-.229.326-.559.598-.986.827-.418.22-.827.352-1.227.396l-.005.009Z"/>
  <path stroke="#332B62" stroke-linecap="square" stroke-miterlimit="10" stroke-width="1.667" d="M45.109 35.92a17.85 17.85 0 0 0-1.094.312c-1.633-.9-4.294-1.889-6.36-2.027l1.227 4.943c-1.51 1.366-2.6 3.022-3.1 4.86H33v6.66h3.605c.8 1.461 2 2.75 3.477 3.794l-1.9 5.099h6.671l1.106-2.655c1.05.206 2.144.322 3.271.322a17.47 17.47 0 0 0 3.272-.322l1.105 2.655h6.671l-1.9-5.1C61.207 52.463 63 49.564 63 46.326c0-.961-.156-1.889-.45-2.778"/>
  <path stroke="#332B62" stroke-linecap="square" stroke-miterlimit="10" stroke-width="1.667" d="M42.615 43.786a.717.717 0 1 0 0-1.433.717.717 0 0 0 0 1.433Zm12.77 0a7.393 7.393 0 1 0 0-14.786 7.393 7.393 0 0 0 0 14.786Z"/>
  <path stroke="#332B62" stroke-linecap="square" stroke-miterlimit="10" stroke-width="1.667" d="M53.746 38.843c.245.7.889 1.1 1.644 1.1.967 0 1.75-.717 1.75-1.722 0-1.006-.722-1.567-1.75-1.822-1.027-.261-1.75-.817-1.75-1.822 0-1.006.784-1.722 1.75-1.722.756 0 1.4.4 1.645 1.1m-1.65-1.111v-.928m0 8.954v-.933"/>
  <defs>
    <filter id="filter0_d_563_2055" width="96" height="96" x="0" y="0" color-interpolation-filters="sRGB" filterUnits="userSpaceOnUse">
      <feFlood flood-opacity="0" result="BackgroundImageFix"/>
      <feColorMatrix in="SourceAlpha" result="hardAlpha" values="0 0 0 0 0 0 0 0 0 0 0 0 0 0 0 0 0 0 127 0"/>
      <feOffset dy="4"/>
      <feGaussianBlur stdDeviation="2"/>
      <feComposite in2="hardAlpha" operator="out"/>
      <feColorMatrix values="0 0 0 0 0 0 0 0 0 0 0 0 0 0 0 0 0 0 0.25 0"/>
      <feBlend in2="BackgroundImageFix" result="effect1_dropShadow_563_2055"/>
      <feBlend in="SourceGraphic" in2="effect1_dropShadow_563_2055" result="shape"/>
    </filter>
  </defs>
</svg>