<svg width="96" height="100" viewBox="0 0 96 100" fill="none" xmlns="http://www.w3.org/2000/svg">
<g filter="url(#filter0_d_695_306)">
<path d="M48 92C72.3005 92 92 72.3005 92 48C92 23.6995 72.3005 4 48 4C23.6995 4 4 23.6995 4 48C4 72.3005 23.6995 92 48 92Z" fill="#62A0D6"/>
</g>
<path d="M45.1089 39.9209C44.7367 40.0154 44.3757 40.1153 44.0146 40.232C42.3816 39.3322 39.721 38.3435 37.6547 38.2046L38.8823 43.1481C37.3714 44.5145 36.2827 46.1698 35.7828 48.0083H33V54.6682H36.6049C37.4047 56.129 38.6045 57.4177 40.082 58.4619L38.1824 63.561H44.8534L45.9587 60.9059C47.0085 61.1115 48.1028 61.2281 49.2303 61.2281C50.3579 61.2281 51.4521 61.1059 52.5019 60.9059L53.6073 63.561H60.2783L58.3786 58.4619C61.2059 56.4623 63 53.5629 63 50.3246C63 49.3636 62.8445 48.436 62.5501 47.5473" stroke="#332B62" stroke-width="1.66667" stroke-miterlimit="10" stroke-linecap="square"/>
<path d="M42.615 47.7862C43.0107 47.7862 43.3315 47.4654 43.3315 47.0696C43.3315 46.6739 43.0107 46.3531 42.615 46.3531C42.2192 46.3531 41.8984 46.6739 41.8984 47.0696C41.8984 47.4654 42.2192 47.7862 42.615 47.7862Z" stroke="#332B62" stroke-width="1.66667" stroke-miterlimit="10" stroke-linecap="square"/>
<path d="M55.3848 47.7861C59.4679 47.7861 62.7778 44.4762 62.7778 40.3931C62.7778 36.31 59.4679 33 55.3848 33C51.3017 33 47.9917 36.31 47.9917 40.3931C47.9917 44.4762 51.3017 47.7861 55.3848 47.7861Z" stroke="#332B62" stroke-width="1.66667" stroke-miterlimit="10" stroke-linecap="square"/>
<path d="M53.7462 42.8426C53.9906 43.5425 54.6349 43.9424 55.3903 43.9424C56.3568 43.9424 57.14 43.2259 57.14 42.2205C57.14 41.2152 56.4179 40.6541 55.3903 40.3986C54.3627 40.1376 53.6406 39.5821 53.6406 38.5768C53.6406 37.5714 54.4238 36.8549 55.3903 36.8549C56.1457 36.8549 56.79 37.2548 57.0344 37.9546" stroke="#332B62" stroke-width="1.66667" stroke-miterlimit="10" stroke-linecap="square"/>
<path d="M55.385 36.8438V35.9161" stroke="#332B62" stroke-width="1.66667" stroke-miterlimit="10" stroke-linecap="square"/>
<path d="M55.385 44.87V43.9368" stroke="#332B62" stroke-width="1.66667" stroke-miterlimit="10" stroke-linecap="square"/>
<path d="M29.9937 28.9034L25.5667 23.1334L29.3871 20.2022L30.1588 21.208L27.5583 23.2032L28.6132 24.5781L30.9601 22.7774L31.7318 23.7833L29.3849 25.5839L31.2136 27.9675L29.9937 28.9034Z" fill="#332B62"/>
<path d="M39.5585 19.2167C39.8616 19.9496 39.9805 20.6305 39.9153 21.2595C39.8523 21.8876 39.6384 22.436 39.2737 22.9045C38.9103 23.3699 38.4321 23.7252 37.8393 23.9704C37.242 24.2174 36.6499 24.3035 36.063 24.2286C35.4761 24.1536 34.9385 23.9161 34.4502 23.516C33.9619 23.1159 33.5667 22.5505 33.2645 21.8198C32.9614 21.0869 32.8413 20.4064 32.9043 19.7783C32.9673 19.1502 33.1806 18.6034 33.544 18.138C33.9065 17.6704 34.3864 17.3131 34.9837 17.0661C35.5765 16.8209 36.1664 16.7357 36.7534 16.8107C37.3416 16.8825 37.8798 17.1185 38.3681 17.5186C38.8586 17.9178 39.2554 18.4838 39.5585 19.2167ZM38.1179 19.8125C37.9215 19.3378 37.6848 18.9668 37.4078 18.6997C37.133 18.4316 36.8328 18.2663 36.5071 18.2037C36.1815 18.1411 35.847 18.1808 35.5035 18.3229C35.16 18.465 34.8951 18.6731 34.7088 18.9475C34.5226 19.2218 34.4257 19.5513 34.4183 19.9361C34.4131 20.32 34.5087 20.7493 34.7051 21.224C34.9014 21.6987 35.137 22.0701 35.4118 22.3382C35.6888 22.6053 35.9902 22.7702 36.3158 22.8328C36.6414 22.8954 36.976 22.8557 37.3194 22.7136C37.6629 22.5715 37.9278 22.3634 38.1141 22.089C38.3004 21.8147 38.3961 21.4856 38.4013 21.1018C38.4087 20.717 38.3142 20.2872 38.1179 19.8125Z" fill="#332B62"/>
<path d="M47.316 14.2552L48.1787 21.4766L46.8599 21.6341L43.1752 17.4643L43.1224 17.4706L43.6653 22.0157L42.1385 22.1981L41.2759 14.9767L42.6158 14.8166L46.2753 18.9859L46.3388 18.9783L45.7963 14.4367L47.316 14.2552Z" fill="#332B62"/>
<path d="M51.672 21.768L49.1189 21.4098L50.1294 14.2076L52.7036 14.5688C53.4281 14.6704 54.0315 14.9021 54.5138 15.2638C54.9965 15.6232 55.3408 16.0911 55.5469 16.6674C55.7552 17.2441 55.8069 17.9064 55.702 18.6543C55.5967 19.4045 55.3644 20.0293 55.0051 20.5287C54.6481 21.0285 54.1856 21.3856 53.6177 21.5999C53.0521 21.8146 52.4035 21.8706 51.672 21.768ZM50.8247 20.3187L51.7918 20.4544C52.2419 20.5176 52.6317 20.491 52.9612 20.3747C53.2934 20.2563 53.5605 20.0392 53.7626 19.7233C53.9674 19.4054 54.1075 18.978 54.1828 18.4411C54.2574 17.9089 54.2399 17.463 54.1302 17.1034C54.0228 16.7441 53.8268 16.4631 53.542 16.2606C53.2573 16.0581 52.8898 15.9253 52.4397 15.8621L51.4691 15.7259L50.8247 20.3187Z" fill="#332B62"/>
<path d="M63.5935 21.6927C63.276 22.4194 62.868 22.9775 62.3697 23.3669C61.8736 23.7572 61.3303 23.9836 60.7399 24.0459C60.1525 24.107 59.5649 24.0091 58.977 23.7522C58.3848 23.4934 57.9121 23.1266 57.5589 22.6519C57.2057 22.1772 57.0038 21.6252 56.9533 20.996C56.9027 20.3667 57.0358 19.6898 57.3524 18.9653C57.67 18.2385 58.0769 17.68 58.573 17.2897C59.0691 16.8993 59.6108 16.6736 60.1982 16.6125C60.7865 16.5492 61.3767 16.647 61.969 16.9058C62.5568 17.1627 63.0274 17.5285 63.3806 18.0033C63.7369 18.4767 63.9403 19.0281 63.9909 19.6574C64.0436 20.2875 63.9111 20.966 63.5935 21.6927ZM62.1651 21.0685C62.3708 20.5977 62.4738 20.1699 62.474 19.7851C62.4764 19.4012 62.3872 19.0702 62.2064 18.7923C62.0256 18.5143 61.7649 18.3009 61.4243 18.1521C61.0837 18.0032 60.75 17.9569 60.4232 18.013C60.0964 18.0691 59.7919 18.228 59.5096 18.4896C59.2295 18.7521 58.9866 19.1188 58.7809 19.5895C58.5752 20.0603 58.4711 20.4876 58.4687 20.8715C58.4685 21.2564 58.5587 21.5878 58.7395 21.8657C58.9204 22.1437 59.1811 22.3571 59.5216 22.5059C59.8622 22.6548 60.1959 22.7011 60.5227 22.645C60.8495 22.5889 61.153 22.4295 61.4331 22.167C61.7153 21.9054 61.9593 21.5392 62.1651 21.0685Z" fill="#332B62"/>
<path d="M69.5732 24.1367C69.7334 23.8975 69.7808 23.6483 69.7153 23.3889C69.6499 23.1295 69.4746 22.8824 69.1895 22.6476C68.9958 22.4881 68.8097 22.3808 68.6311 22.3257C68.454 22.2689 68.2908 22.2586 68.1412 22.2949C67.9935 22.3328 67.87 22.412 67.7707 22.5326C67.6842 22.6301 67.633 22.7351 67.617 22.8477C67.6028 22.9617 67.6143 23.08 67.6513 23.2026C67.6899 23.3233 67.7466 23.4482 67.8213 23.5772C67.8975 23.7043 67.9855 23.8321 68.0854 23.9603L68.4905 24.4963C68.6902 24.7528 68.8548 25.011 68.9842 25.2709C69.1136 25.5309 69.1983 25.7893 69.2383 26.0461C69.2783 26.3029 69.2649 26.5556 69.1982 26.8043C69.1332 27.0544 69.0053 27.2972 68.8145 27.5326C68.5298 27.8747 68.1967 28.1003 67.8154 28.2095C67.4375 28.3184 67.0286 28.3084 66.589 28.1794C66.1526 28.05 65.706 27.7972 65.2492 27.421C64.7959 27.0477 64.4584 26.6532 64.2365 26.2374C64.0165 25.8231 63.9245 25.4023 63.9605 24.975C63.9998 24.5474 64.1813 24.1278 64.5047 23.7164L65.6533 24.6623C65.5111 24.8611 65.4355 25.0627 65.4267 25.267C65.4212 25.4711 65.4726 25.6713 65.5807 25.8677C65.6922 26.0638 65.8503 26.2461 66.0549 26.4146C66.256 26.5802 66.4546 26.6947 66.6507 26.7581C66.8488 26.823 67.0318 26.8373 67.1998 26.8008C67.3678 26.7644 67.5075 26.6786 67.6189 26.5433C67.7227 26.4172 67.7726 26.2804 67.7684 26.1328C67.766 25.9867 67.7184 25.8248 67.6255 25.6471C67.5345 25.4709 67.4069 25.2739 67.2429 25.056L66.758 24.399C66.3795 23.8941 66.154 23.4063 66.0816 22.9357C66.0091 22.4651 66.1446 22.0231 66.4881 21.6098C66.7662 21.2683 67.1012 21.0459 67.4932 20.9424C67.887 20.8404 68.3034 20.8505 68.7424 20.9729C69.1814 21.0952 69.6056 21.3249 70.0149 21.662C70.4316 22.0052 70.7366 22.376 70.9299 22.7744C71.125 23.1743 71.2047 23.5727 71.1691 23.9697C71.1335 24.3667 70.9808 24.7347 70.7108 25.0736L69.5732 24.1367Z" fill="#332B62"/>
<path d="M16.4077 62.8314L15.291 60.5077L21.8462 57.3577L22.9721 59.7006C23.2889 60.36 23.4305 60.9906 23.3967 61.5926C23.365 62.1935 23.1664 62.7394 22.8008 63.2303C22.4362 63.7233 21.9135 64.1334 21.2329 64.4605C20.55 64.7886 19.9012 64.9415 19.2863 64.9192C18.6725 64.8989 18.119 64.7118 17.6258 64.3578C17.1337 64.006 16.7276 63.4972 16.4077 62.8314ZM17.1445 61.323L17.5675 62.2032C17.7644 62.6129 18.0025 62.9226 18.282 63.1324C18.5645 63.3433 18.8933 63.4454 19.2683 63.4386C19.6464 63.4328 20.0797 63.3126 20.5684 63.0778C21.0528 62.845 21.4143 62.5833 21.6528 62.2927C21.8924 62.0042 22.0176 61.6853 22.0284 61.3361C22.0392 60.9868 21.9461 60.6073 21.7492 60.1976L21.3247 59.3142L17.1445 61.323Z" fill="#332B62"/>
<path d="M26.1809 65.1042L20.3569 69.4601L19.436 68.2287L25.26 63.8729L26.1809 65.1042Z" fill="#332B62"/>
<path d="M28.7129 70.8593C28.8839 70.6277 28.9426 70.3809 28.8891 70.1187C28.8356 69.8566 28.6719 69.6017 28.3979 69.3541C28.2117 69.1859 28.0307 69.0702 27.8548 69.007C27.6806 68.942 27.5179 68.9243 27.3669 68.9537C27.2176 68.9848 27.0906 69.0582 26.9858 69.1742C26.895 69.2676 26.839 69.3702 26.8178 69.4819C26.7984 69.5951 26.8044 69.7138 26.8359 69.838C26.8689 69.9603 26.9197 70.0877 26.9884 70.22C27.0587 70.3505 27.1408 70.4821 27.2347 70.6148L27.6147 71.1688C27.8025 71.4342 27.9551 71.6997 28.0724 71.9653C28.1898 72.2309 28.2625 72.4929 28.2907 72.7513C28.3189 73.0096 28.2939 73.2615 28.2158 73.5068C28.1395 73.7537 28.0006 73.9904 27.7992 74.2168C27.499 74.5454 27.156 74.7556 26.7701 74.8472C26.3875 74.9386 25.9796 74.9098 25.5463 74.7608C25.1163 74.6115 24.6818 74.3385 24.2427 73.9417C23.8071 73.5481 23.488 73.1385 23.2854 72.7129C23.0846 72.289 23.012 71.8644 23.0676 71.4392C23.1265 71.0138 23.327 70.603 23.669 70.2069L24.7729 71.2045C24.6217 71.3966 24.5371 71.5944 24.5189 71.7982C24.504 72.0017 24.5461 72.2041 24.6451 72.4053C24.7475 72.6062 24.897 72.7956 25.0938 72.9734C25.287 73.148 25.4801 73.2715 25.6732 73.3438C25.868 73.4178 26.0502 73.4404 26.2197 73.4117C26.3892 73.383 26.5327 73.3037 26.6502 73.1737C26.7597 73.0525 26.8157 72.9181 26.8183 72.7705C26.8227 72.6244 26.7825 72.4605 26.6979 72.2787C26.615 72.0986 26.4967 71.8959 26.3428 71.6707L25.8886 70.9922C25.5336 70.4704 25.3308 69.9728 25.28 69.4993C25.2292 69.0259 25.3849 68.5906 25.7469 68.1934C26.0404 67.8652 26.3853 67.6583 26.7816 67.5729C27.1796 67.489 27.5951 67.5183 28.028 67.6606C28.461 67.803 28.8742 68.0519 29.2676 68.4075C29.6681 68.7694 29.9558 69.1537 30.1306 69.5606C30.3071 69.969 30.3685 70.3707 30.3148 70.7656C30.261 71.1606 30.0915 71.5212 29.8063 71.8474L28.7129 70.8593Z" fill="#332B62"/>
<path d="M29.1998 77.8227L32.646 71.4183L35.1727 72.778C35.6585 73.0393 36.0224 73.3548 36.2644 73.7243C36.5076 74.0918 36.6308 74.4874 36.634 74.9111C36.6403 75.334 36.5291 75.758 36.3002 76.1833C36.0714 76.6086 35.7777 76.9345 35.4193 77.161C35.0608 77.3875 34.6587 77.4978 34.2129 77.4918C33.7693 77.487 33.3014 77.3522 32.8094 77.0874L31.199 76.2208L31.7829 75.1357L33.1744 75.8845C33.435 76.0247 33.6739 76.0955 33.891 76.0967C34.1113 76.0969 34.3063 76.0392 34.4761 75.9236C34.6491 75.807 34.7922 75.6434 34.9055 75.4328C35.02 75.2202 35.0771 75.0116 35.0768 74.8072C35.0798 74.6018 35.0194 74.4093 34.8956 74.2298C34.7729 74.0481 34.5802 73.8867 34.3175 73.7453L33.4044 73.2539L30.5538 78.5513L29.1998 77.8227Z" fill="#332B62"/>
<path d="M43.7261 79.5189C43.5387 80.2895 43.2332 80.9096 42.8097 81.3792C42.3884 81.8493 41.8923 82.166 41.3214 82.3293C40.7535 82.4909 40.1578 82.4959 39.5344 82.3443C38.9063 82.1916 38.3774 81.912 37.9476 81.5053C37.5178 81.0987 37.2236 80.5899 37.0652 79.9788C36.9068 79.3677 36.921 78.678 37.1079 77.9097C37.2952 77.139 37.5996 76.5187 38.0209 76.0486C38.4422 75.5784 38.9368 75.2626 39.5048 75.101C40.0733 74.9371 40.6716 74.9315 41.2996 75.0842C41.923 75.2358 42.4496 75.5149 42.8795 75.9216C43.3122 76.3264 43.6077 76.8344 43.7661 77.4455C43.9268 78.0571 43.9135 78.7482 43.7261 79.5189ZM42.2113 79.1506C42.3327 78.6514 42.3603 78.2122 42.2941 77.8331C42.2302 77.4545 42.0852 77.144 41.8591 76.9014C41.6331 76.6588 41.3394 76.4936 40.9783 76.4058C40.6171 76.318 40.2804 76.3299 39.9682 76.4416C39.656 76.5533 39.3834 76.7624 39.1506 77.0688C38.92 77.3757 38.744 77.7788 38.6227 78.278C38.5013 78.7772 38.4725 79.2161 38.5364 79.5946C38.6026 79.9737 38.7488 80.2846 38.9748 80.5272C39.2009 80.7697 39.4945 80.9349 39.8557 81.0227C40.2169 81.1105 40.5535 81.0986 40.8658 80.9869C41.178 80.8752 41.4494 80.6659 41.6799 80.3589C41.9128 80.0525 42.0899 79.6497 42.2113 79.1506Z" fill="#332B62"/>
<path d="M52.1131 75.9567L52.3837 83.2244L51.0565 83.2738L47.7243 78.8173L47.671 78.8193L47.8414 83.3935L46.3048 83.4508L46.0342 76.1831L47.3827 76.1329L50.6899 80.5867L50.7538 80.5844L50.5836 76.0137L52.1131 75.9567Z" fill="#332B62"/>
<path d="M54.8714 75.2804L56.5443 82.3581L55.0479 82.7118L53.375 75.6341L54.8714 75.2804Z" fill="#332B62"/>
<path d="M59.8374 81.5487L56.814 74.9342L59.4623 73.7236C59.9489 73.5012 60.3878 73.3878 60.7789 73.3835C61.1699 73.3791 61.5058 73.4676 61.7866 73.6491C62.0664 73.8283 62.282 74.0838 62.4336 74.4153C62.5517 74.6737 62.6039 74.9245 62.5901 75.1677C62.5753 75.4087 62.506 75.633 62.3822 75.8406C62.2596 76.045 62.0949 76.2257 61.8882 76.3827L61.9177 76.4473C62.1745 76.3429 62.4428 76.3062 62.7225 76.3371C63.0043 76.3671 63.2682 76.469 63.5143 76.6428C63.7593 76.8145 63.9562 77.063 64.1048 77.3881C64.2652 77.7391 64.3212 78.0922 64.2728 78.4475C64.2255 78.7997 64.0693 79.1327 63.8041 79.4466C63.5389 79.7604 63.1587 80.0305 62.6634 80.2569L59.8374 81.5487ZM60.7133 79.7661L61.8534 79.245C62.2431 79.0668 62.4934 78.8626 62.6042 78.6324C62.714 78.4 62.7118 78.1589 62.5976 77.9091C62.514 77.7261 62.396 77.5848 62.2438 77.4852C62.0915 77.3856 61.9154 77.3334 61.7153 77.3285C61.5174 77.3226 61.3065 77.3709 61.0826 77.4732L59.9102 78.0091L60.7133 79.7661ZM59.4776 77.0628L60.5144 76.5889C60.706 76.5013 60.8608 76.3902 60.9789 76.2556C61.0981 76.1178 61.1723 75.9667 61.2013 75.8025C61.2325 75.6373 61.2082 75.4674 61.1285 75.293C61.0193 75.054 60.8461 74.9002 60.6091 74.8315C60.3742 74.7619 60.1018 74.7979 59.7917 74.9397L58.7291 75.4254L59.4776 77.0628Z" fill="#332B62"/>
<path d="M67.8565 77.5082L63.3274 71.8179L64.5305 70.8604L68.2701 75.5588L70.7096 73.6171L71.4991 74.609L67.8565 77.5082Z" fill="#332B62"/>
<path d="M73.8833 72.3865L68.1934 67.8569L71.2455 64.0229L72.2373 64.8124L70.1429 67.4435L71.4987 68.5228L73.4361 66.089L74.428 66.8786L72.4906 69.3124L73.8491 70.3939L75.9525 67.7517L76.9443 68.5413L73.8833 72.3865Z" fill="#332B62"/>
<path d="M75.6208 60.2658C75.3487 60.1717 75.0956 60.1893 74.8614 60.3185C74.6271 60.4478 74.4327 60.6801 74.2781 61.0155C74.1731 61.2434 74.1166 61.4507 74.1088 61.6374C74.0988 61.8231 74.1304 61.9836 74.2035 62.119C74.2777 62.2522 74.3857 62.3516 74.5276 62.417C74.6439 62.4758 74.7585 62.4986 74.8714 62.4855C74.9853 62.4702 75.0968 62.4291 75.2059 62.3621C75.3129 62.294 75.4192 62.2075 75.525 62.1025C75.6286 61.9964 75.7298 61.8788 75.8284 61.7496L76.2438 61.2216C76.4411 60.9632 76.649 60.7384 76.8675 60.5472C77.086 60.3559 77.3143 60.2083 77.5525 60.1043C77.7908 60.0004 78.0386 59.9491 78.296 59.9504C78.5545 59.9496 78.8218 60.0116 79.098 60.1363C79.5012 60.3247 79.8041 60.5895 80.0067 60.9305C80.2081 61.2684 80.3023 61.6663 80.2893 62.1243C80.2751 62.5792 80.1442 63.0754 79.8964 63.6129C79.6507 64.1461 79.3549 64.5729 79.0092 64.8931C78.6644 65.2113 78.2808 65.4073 77.8584 65.4811C77.4348 65.5517 76.983 65.4829 76.5028 65.2747L77.1257 63.9234C77.3541 64.0104 77.5682 64.0322 77.7681 63.9888C77.9668 63.9422 78.1474 63.8416 78.3099 63.6871C78.4712 63.5295 78.6073 63.3302 78.7183 63.0894C78.8273 62.8529 78.8875 62.6317 78.899 62.4259C78.9115 62.2179 78.8787 62.0372 78.8008 61.884C78.7228 61.7308 78.6043 61.6175 78.4452 61.5441C78.2968 61.4758 78.1518 61.4624 78.0101 61.5039C77.8694 61.5434 77.725 61.6306 77.5767 61.7656C77.4295 61.8984 77.2713 62.0719 77.1023 62.2859L76.5902 62.9219C76.1981 63.4163 75.7836 63.7584 75.3469 63.9481C74.9101 64.1378 74.4482 64.1191 73.9611 63.892C73.5603 63.7098 73.2599 63.4424 73.0602 63.0896C72.8614 62.7347 72.7654 62.3294 72.7721 61.8737C72.7788 61.418 72.8931 60.9493 73.1151 60.4677C73.3411 59.9775 73.6221 59.5883 73.9583 59.3001C74.2955 59.0098 74.6605 58.8313 75.0535 58.7648C75.4465 58.6983 75.8412 58.7525 76.2377 58.9274L75.6208 60.2658Z" fill="#332B62"/>
<defs>
<filter id="filter0_d_695_306" x="0" y="4" width="96" height="96" filterUnits="userSpaceOnUse" color-interpolation-filters="sRGB">
<feFlood flood-opacity="0" result="BackgroundImageFix"/>
<feColorMatrix in="SourceAlpha" type="matrix" values="0 0 0 0 0 0 0 0 0 0 0 0 0 0 0 0 0 0 127 0" result="hardAlpha"/>
<feOffset dy="4"/>
<feGaussianBlur stdDeviation="2"/>
<feComposite in2="hardAlpha" operator="out"/>
<feColorMatrix type="matrix" values="0 0 0 0 0 0 0 0 0 0 0 0 0 0 0 0 0 0 0.25 0"/>
<feBlend mode="normal" in2="BackgroundImageFix" result="effect1_dropShadow_695_306"/>
<feBlend mode="normal" in="SourceGraphic" in2="effect1_dropShadow_695_306" result="shape"/>
</filter>
</defs>
</svg>
