<?xml version="1.0" encoding="UTF-8"?>
<svg id="Layer_2" data-name="Layer 2" xmlns="http://www.w3.org/2000/svg" viewBox="0 0 187.96 70.8">
  <defs>
    <style>
      .cls-1 {
        fill: #5ec4b6;
      }

      .cls-2 {
        fill: #c6d367;
      }

      .cls-3 {
        fill: #36526b;
      }
    </style>
  </defs>
  <g id="Layer_1-2" data-name="Layer 1">
    <g>
      <path class="cls-3" d="M68.66,34.09h-4.38v7.55h-8.04V13.22h12.99c7.75,0,12.62,4.02,12.62,10.51,0,4.18-2.03,7.27-5.56,8.97l6.13,8.93h-8.6l-5.15-7.55ZM68.74,19.56h-4.47v8.32h4.47c3.33,0,4.99-1.54,4.99-4.14s-1.66-4.18-4.99-4.18"/>
      <path class="cls-2" d="M90.25,9.21c3.07,0,5.13-2.01,5.13-4.76,0-2.54-2.06-4.44-5.13-4.44s-5.13,2.01-5.13,4.6,2.06,4.6,5.13,4.6"/>
      <rect class="cls-3" x="86.13" y="13.17" width="8.25" height="28.46"/>
      <path class="cls-3" d="M98.35,38.99l2.75-5.93c2.54,1.64,6.4,2.75,9.89,2.75,3.81,0,5.24-1,5.24-2.59,0-4.66-17.19.11-17.19-11.27,0-5.4,4.87-9.21,13.17-9.21,3.91,0,8.25.9,10.95,2.49l-2.75,5.87c-2.8-1.59-5.61-2.12-8.2-2.12-3.7,0-5.29,1.16-5.29,2.65,0,4.87,17.19.16,17.19,11.37,0,5.29-4.92,9.05-13.44,9.05-4.81,0-9.68-1.32-12.33-3.07"/>
      <path class="cls-3" d="M156.07,29.73h-21.53c.79,3.54,3.81,5.71,8.15,5.71,3.01,0,5.18-.9,7.14-2.75l4.39,4.76c-2.65,3.02-6.61,4.6-11.74,4.6-9.84,0-16.24-6.19-16.24-14.65s6.51-14.65,15.18-14.65,14.81,5.61,14.81,14.76c0,.63-.11,1.53-.16,2.22M134.43,24.92h14.02c-.58-3.6-3.28-5.93-6.98-5.93s-6.46,2.28-7.04,5.93"/>
      <polygon class="cls-3" points="72.27 57.6 60.4 57.6 60.4 47.87 56.62 47.87 56.62 70.27 60.4 70.27 60.4 60.99 72.27 60.99 72.27 70.27 76.04 70.27 76.04 47.87 72.27 47.87 72.27 57.6"/>
      <path class="cls-3" d="M90.6,47.41c-6.68,0-11.53,4.92-11.53,11.69s4.85,11.69,11.53,11.69,11.53-4.92,11.53-11.69-4.85-11.69-11.53-11.69M90.6,51.13c4.46,0,7.58,3.28,7.58,7.98s-3.12,7.98-7.58,7.98-7.58-3.28-7.58-7.98,3.12-7.98,7.58-7.98"/>
      <path class="cls-3" d="M132.55,47.23c-3.59,0-6.63,1.46-8.46,3.97-1.54-2.58-4.26-3.97-7.85-3.97-2.92,0-5.41.95-7.17,2.66v-2.02h-3.83v22.4h3.92v-12.12c0-4.53,2.54-7.23,6.8-7.23,4.68,0,5.67,3.43,5.67,6.31v13.05h3.91v-12.12c0-4.53,2.54-7.23,6.8-7.23,4.69,0,5.67,3.43,5.67,6.31v13.05h3.92v-13.21c0-6.15-3.51-9.83-9.38-9.83"/>
      <path class="cls-3" d="M155.98,47.42c-6.42,0-11.09,4.92-11.09,11.69s4.99,11.69,11.86,11.69c3.56,0,6.74-1.38,8.72-3.79l.51-.62-2.44-2.78-.7.86c-1.38,1.69-3.52,2.62-6.04,2.62-4.27,0-7.35-2.59-7.93-6.55h18.12v-.94c0-.07,0-.15.02-.22.01-.12.02-.25.02-.35,0-6.73-4.64-11.61-11.04-11.61M155.98,51.09c3.64,0,6.42,2.41,7.05,5.98h-14.1c.65-3.62,3.38-5.98,7.05-5.98"/>
      <path class="cls-3" d="M179.55,57.4c-3.49-.66-5.63-1.18-5.63-3.29,0-2.64,3.15-3.03,5.02-3.03,2.22,0,4.28.61,5.81,1.73l.85.62,1.87-3.25-.66-.5c-1.82-1.37-4.89-2.26-7.83-2.26-6.62,0-8.98,3.63-8.98,6.74,0,5.25,4.75,6.14,8.57,6.85,3.71.69,5.46,1.22,5.46,3.09,0,.75,0,3.03-5.3,3.03-3.15,0-5.75-1.26-7.02-2.33l-.86-.74-1.87,3.26.55.51c1.95,1.8,5.53,2.97,9.12,2.97,5.74,0,9.3-2.58,9.3-6.74,0-5.06-4.66-5.94-8.41-6.65"/>
      <polygon class="cls-1" points="19.55 50.49 0 70.02 0 58.46 13.77 44.71 19.55 50.49"/>
      <polygon class="cls-1" points="48.54 38.17 48.54 49.71 18.3 19.47 24.08 13.71 48.54 38.17"/>
      <polygon class="cls-2" points="48.55 58.86 48.55 70.41 13.73 35.59 0 49.32 0 37.78 13.73 24.05 24.07 34.39 29.85 40.17 48.55 58.86"/>
    </g>
  </g>
</svg>