<svg width="183" height="69" viewBox="0 0 183 69" fill="none" xmlns="http://www.w3.org/2000/svg">
<path d="M66.8517 33.2183H62.587V40.5773H54.7588V12.876H67.4067C74.9526 12.876 79.6943 16.7943 79.6943 23.1202C79.6943 27.1945 77.7178 30.2064 74.2807 31.8634L80.2493 40.5676H71.8758L66.8614 33.2085H66.8517V33.2183ZM66.9296 19.0557H62.5773V27.1653H66.9296C70.1719 27.1653 71.7882 25.6642 71.7882 23.13C71.7882 20.5957 70.1719 19.0557 66.9296 19.0557Z" fill="white"/>
<path d="M87.8731 8.96737C90.8622 8.96737 92.868 7.00819 92.868 4.32773C92.868 1.85196 90.8622 0 87.8731 0C84.8839 0 82.8782 1.95917 82.8782 4.48368C82.8782 7.00819 84.8839 8.96737 87.8731 8.96737Z" fill="#C5DC69"/>
<path d="M91.8943 12.8272H83.8616V40.5676H91.8943V12.8272Z" fill="white"/>
<path d="M95.7597 37.9944L98.4373 32.2143C100.91 33.8128 104.669 34.8948 108.067 34.8948C111.776 34.8948 113.169 33.92 113.169 32.3703C113.169 27.8281 96.4316 32.4775 96.4316 21.3852C96.4316 16.1218 101.173 12.4081 109.255 12.4081C113.062 12.4081 117.287 13.2854 119.916 14.8352L117.239 20.5567C114.512 19.0069 111.776 18.4903 109.255 18.4903C105.652 18.4903 104.104 19.621 104.104 21.0733C104.104 25.8202 120.841 21.2293 120.841 32.1558C120.841 37.3121 116.051 40.977 107.755 40.977C103.072 40.977 98.3302 39.6904 95.75 37.9846" fill="white"/>
<path d="M151.96 28.9685H130.997C131.766 32.419 134.706 34.5341 138.932 34.5341C141.863 34.5341 143.976 33.6569 145.884 31.8536L150.158 36.4933C147.578 39.4369 143.722 40.977 138.728 40.977C129.147 40.977 122.915 34.9435 122.915 26.6974C122.915 18.4513 129.254 12.4178 137.695 12.4178C146.137 12.4178 152.115 17.886 152.115 26.8046C152.115 27.4187 152.008 28.2959 151.96 28.9685ZM130.89 24.2801H144.54C143.976 20.7711 141.347 18.5001 137.744 18.5001C134.142 18.5001 131.454 20.7224 130.89 24.2801Z" fill="white"/>
<path d="M70.3667 56.1338H58.8094V46.6498H55.1289V68.4834H58.8094V59.4381H70.3667V68.4834H74.0374V46.6498H70.3667V56.1338Z" fill="white"/>
<path d="M88.2139 46.2014C81.7098 46.2014 76.9875 50.997 76.9875 57.5959C76.9875 64.1947 81.7098 68.9903 88.2139 68.9903C94.718 68.9903 99.4402 64.1947 99.4402 57.5959C99.4402 50.997 94.718 46.2014 88.2139 46.2014ZM88.2139 49.8274C92.5564 49.8274 95.5943 53.0244 95.5943 57.6056C95.5943 62.1868 92.5564 65.3838 88.2139 65.3838C83.8713 65.3838 80.8335 62.1868 80.8335 57.6056C80.8335 53.0244 83.8713 49.8274 88.2139 49.8274Z" fill="white"/>
<path d="M129.059 46.026C125.564 46.026 122.604 47.4491 120.822 49.8956C119.322 47.3809 116.674 46.026 113.179 46.026C110.335 46.026 107.911 46.952 106.197 48.6187V46.6498H102.468V68.4834H106.285V56.6699C106.285 52.2544 108.758 49.6227 112.906 49.6227C117.463 49.6227 118.427 52.966 118.427 55.7731V68.4932H122.234V56.6796C122.234 52.2642 124.707 49.6324 128.855 49.6324C133.421 49.6324 134.375 52.9757 134.375 55.7829V68.5029H138.192V55.6269C138.192 49.6324 134.774 46.0455 129.059 46.0455" fill="white"/>
<path d="M151.872 46.2112C145.621 46.2112 141.074 51.0068 141.074 57.6056C141.074 64.2044 145.933 69 152.622 69C156.088 69 159.184 67.6549 161.112 65.3058L161.609 64.7015L159.233 61.9918L158.551 62.8301C157.208 64.4773 155.124 65.3838 152.67 65.3838C148.513 65.3838 145.514 62.8593 144.949 58.9994H162.592V58.0832C162.592 58.015 162.592 57.937 162.611 57.8688C162.611 57.7518 162.631 57.6251 162.631 57.5276C162.631 50.9678 158.113 46.2112 151.882 46.2112M151.872 49.7884C155.416 49.7884 158.123 52.1374 158.736 55.6172H145.008C145.64 52.0887 148.299 49.7884 151.872 49.7884Z" fill="white"/>
<path d="M174.821 55.9388C171.423 55.2955 169.339 54.7887 169.339 52.732C169.339 50.1588 172.406 49.7786 174.227 49.7786C176.389 49.7786 178.395 50.3732 179.884 51.4649L180.712 52.0692L182.533 48.9014L181.89 48.414C180.118 47.0787 177.129 46.2112 174.266 46.2112C167.821 46.2112 165.523 49.7494 165.523 52.7808C165.523 57.898 170.148 58.7655 173.867 59.4575C177.479 60.1301 179.183 60.6467 179.183 62.4694C179.183 63.2004 179.183 65.4228 174.023 65.4228C170.956 65.4228 168.424 64.1947 167.188 63.1517L166.35 62.4304L164.53 65.608L165.065 66.1051C166.964 67.8596 170.449 69 173.945 69C179.534 69 183 66.4852 183 62.4304C183 57.4984 178.463 56.6406 174.811 55.9486" fill="white"/>
<path d="M19.0351 49.2035L0 68.2397V56.972L13.4073 43.5697L19.0351 49.2035Z" fill="#5EC4B6"/>
<path d="M47.2617 37.1951V48.4433L17.8181 18.9679L23.4459 13.3536L47.2617 37.1951Z" fill="#5EC4B6"/>
<path d="M47.2714 57.3619V68.6199L13.3684 34.6803L0 48.0632V36.815L13.3684 23.4321L23.4361 33.5107L29.0638 39.1445L47.2714 57.3619Z" fill="#C5DC69"/>
</svg>
